<svg width="50" height="58" viewBox="0 0 50 58" fill="none" xmlns="http://www.w3.org/2000/svg">
<path d="M49.6171 16.8734C49.6167 15.9084 49.416 15.0557 49.0105 14.3238C48.6121 13.6041 48.0156 13.001 47.2154 12.524C40.6095 8.60418 33.9975 4.69633 27.3938 0.772496C25.6136 -0.285237 23.8874 -0.246676 22.1204 0.826241C19.4911 2.42203 6.32713 10.1836 2.40447 12.5218C0.788998 13.4843 0.0029127 14.9572 0.00252322 16.8716C-1.10642e-08 24.7547 0.00252323 32.6375 0 40.5208C0.000387616 41.4646 0.192395 42.3008 0.580101 43.0216C0.978677 43.763 1.58362 44.3828 2.40233 44.8707C6.32519 47.2088 19.4909 54.9699 22.1196 56.5661C23.8874 57.6395 25.6136 57.6779 27.3944 56.6198C33.9982 52.6958 40.6108 48.7881 47.2174 44.8682C48.0361 44.3807 48.6411 43.7606 49.0396 43.0197C49.4268 42.2988 49.6191 41.4627 49.6195 40.5185C49.6195 40.5185 49.6195 24.7568 49.6171 16.8734Z" fill="#5C8DBC"/>
<path d="M24.8837 28.6196L0.578125 43.0219C0.976703 43.7633 1.58165 44.3831 2.40036 44.8707C6.32322 47.2091 19.4888 54.97 22.1175 56.5661C23.8854 57.6398 25.6116 57.6781 27.3924 56.62C33.9962 52.6959 40.6088 48.7882 47.2155 44.8684C48.0341 44.381 48.6392 43.7608 49.0376 43.0198L24.8837 28.6196Z" fill="#1A4674"/>
<path d="M17.6875 32.8856C19.1018 35.4268 21.7607 37.1405 24.8106 37.1405C27.8795 37.1405 30.5535 35.4049 31.9606 32.8367L24.8866 28.6196L17.6875 32.8856Z" fill="#1A4674"/>
<path d="M49.6181 16.8736C49.6178 15.9086 49.4172 15.0558 49.0115 14.324L24.8867 28.6196L49.0408 43.0198C49.4279 42.2989 49.6202 41.4627 49.6206 40.5187C49.6206 40.5187 49.6205 24.7568 49.6181 16.8736Z" fill="#1B598E"/>
<path d="M48.2877 29.6488H46.4003V31.5916H44.5124V29.6488H42.6252V27.7066H44.5124V25.7642H46.4003V27.7066H48.2877V29.6488ZM41.4005 29.6488H39.5133V31.5916H37.6259V29.6488H35.7383V27.7066H37.6259V25.7642H39.5133V27.7066H41.4005V29.6488Z" fill="#EEF2F6"/>
<path d="M31.9599 32.8364C30.5528 35.4045 27.8788 37.1402 24.8099 37.1402C21.76 37.1402 19.1011 35.4264 17.6868 32.8853C16.9763 31.6102 16.6032 30.1658 16.6047 28.696C16.6047 24.0325 20.2785 20.2518 24.8099 20.2518C27.8404 20.2518 30.4851 21.9443 31.9064 24.4594L39.0783 20.2093C36.2278 15.1452 30.9057 11.7383 24.8099 11.7383C15.7093 11.7383 8.33203 19.3307 8.33203 28.696C8.33203 31.7685 9.12627 34.6497 10.5144 37.135C13.3578 42.2259 18.6951 45.6538 24.8099 45.6538C30.9361 45.6538 36.2817 42.212 39.121 37.1062L31.9599 32.8364Z" fill="#EEF2F6"/>
</svg>
