<svg width="24" height="24" viewBox="0 0 24 24" fill="none" xmlns="http://www.w3.org/2000/svg">
<g clip-path="url(#clip0_327_799)">
<path d="M11.0025 6.35948C7.88098 6.35948 5.36319 8.87783 5.36319 12C5.36319 15.1222 7.88098 17.6405 11.0025 17.6405C14.1239 17.6405 16.6417 15.1222 16.6417 12C16.6417 8.87783 14.1239 6.35948 11.0025 6.35948ZM11.0025 15.6671C8.98528 15.6671 7.3362 14.0225 7.3362 12C7.3362 9.97746 8.98037 8.33292 11.0025 8.33292C13.0245 8.33292 14.6687 9.97746 14.6687 12C14.6687 14.0225 13.0196 15.6671 11.0025 15.6671ZM18.1877 6.12875C18.1877 6.8602 17.5988 7.44438 16.8724 7.44438C16.1411 7.44438 15.5571 6.85529 15.5571 6.12875C15.5571 5.40221 16.146 4.81312 16.8724 4.81312C17.5988 4.81312 18.1877 5.40221 18.1877 6.12875ZM21.9227 7.46402C21.8393 5.70166 21.4368 4.14058 20.146 2.8544C18.8601 1.56822 17.2994 1.16568 15.5374 1.07732C13.7215 0.974227 8.27853 0.974227 6.46258 1.07732C4.70552 1.16077 3.14479 1.56332 1.85399 2.84949C0.56319 4.13567 0.165644 5.69675 0.0773006 7.45911C-0.0257669 9.27547 -0.0257669 14.7196 0.0773006 16.536C0.160736 18.2983 0.56319 19.8594 1.85399 21.1456C3.14479 22.4318 4.70061 22.8343 6.46258 22.9227C8.27853 23.0258 13.7215 23.0258 15.5374 22.9227C17.2994 22.8392 18.8601 22.4367 20.146 21.1456C21.4319 19.8594 21.8344 18.2983 21.9227 16.536C22.0258 14.7196 22.0258 9.28037 21.9227 7.46402ZM19.5767 18.4849C19.1939 19.4471 18.4528 20.1883 17.4859 20.5761C16.038 21.1505 12.6025 21.018 11.0025 21.018C9.40245 21.018 5.96196 21.1456 4.51902 20.5761C3.55705 20.1932 2.81595 19.452 2.42822 18.4849C1.85399 17.0367 1.9865 13.6004 1.9865 12C1.9865 10.3996 1.8589 6.95838 2.42822 5.51512C2.81104 4.55294 3.55215 3.81167 4.51902 3.42385C5.96687 2.84949 9.40245 2.98204 11.0025 2.98204C12.6025 2.98204 16.0429 2.8544 17.4859 3.42385C18.4479 3.80676 19.189 4.54803 19.5767 5.51512C20.1509 6.96329 20.0184 10.3996 20.0184 12C20.0184 13.6004 20.1509 17.0416 19.5767 18.4849Z" fill="#0083C9"/>
</g>
<defs>
<clipPath id="clip0_327_799">
<rect width="24" height="24" fill="white"/>
</clipPath>
</defs>
</svg>
