<svg width="67" height="68" viewBox="0 0 67 68" fill="none" xmlns="http://www.w3.org/2000/svg">
<path d="M33.1013 0.000586387C30.3385 0.0131841 27.7001 0.24776 25.3791 0.656924C18.5405 1.85978 17.2988 4.37652 17.2988 9.01883V15.1496H33.4593V17.193H11.2335C6.537 17.193 2.42395 20.0031 1.13772 25.3485C-0.346212 31.4758 -0.411911 35.2991 1.13772 41.6968C2.28653 46.4591 5.03017 49.8523 9.72668 49.8523H15.2833V42.5031C15.2833 37.1937 19.8984 32.5106 25.3791 32.5106H41.5209C46.0143 32.5106 49.6011 28.8281 49.6011 24.3364V9.01823C49.6011 4.65909 45.9063 1.38404 41.5209 0.656322C38.7441 0.196767 35.8641 -0.0126135 33.1013 0.000586387ZM24.3617 4.93087C26.0313 4.93087 27.3941 6.31013 27.3941 8.00555C27.3941 9.69497 26.0306 11.0616 24.3617 11.0616C22.6867 11.0616 21.3293 9.69557 21.3293 8.00555C21.3293 6.31013 22.6867 4.93087 24.3617 4.93087Z" fill="url(#paint0_linear_80_2041)"/>
<path d="M51.6186 17.1923V24.3351C51.6186 29.8731 46.9016 34.5339 41.5227 34.5339H25.3809C20.9594 34.5339 17.3008 38.3005 17.3008 42.7082V58.0251C17.3008 62.3848 21.1089 64.949 25.3809 66.1993C30.4965 67.6967 35.4021 67.9673 41.5227 66.1993C45.5914 65.0271 49.6032 62.6669 49.6032 58.0251V51.8951H33.4614V49.8515H57.6834C62.3805 49.8515 64.1301 46.5903 65.7636 41.696C67.4511 36.6579 67.3794 31.8115 65.7636 25.3478C64.6026 20.6941 62.3858 17.1923 57.6834 17.1923H51.6186ZM42.5397 55.9817C44.2146 55.9817 45.572 57.3478 45.572 59.0379C45.572 60.7331 44.2146 62.1124 42.5397 62.1124C40.8701 62.1124 39.5073 60.7331 39.5073 59.0379C39.5073 57.3485 40.8708 55.9817 42.5397 55.9817Z" fill="url(#paint1_linear_80_2041)"/>
<defs>
<linearGradient id="paint0_linear_80_2041" x1="-1.59387" y1="1.91498" x2="35.5263" y2="33.6899" gradientUnits="userSpaceOnUse">
<stop stop-color="#5A9FD4"/>
<stop offset="1" stop-color="#306998"/>
</linearGradient>
<linearGradient id="paint1_linear_80_2041" x1="49.6574" y1="53.2213" x2="36.3693" y2="34.516" gradientUnits="userSpaceOnUse">
<stop stop-color="#FFD43B"/>
<stop offset="1" stop-color="#FFE873"/>
</linearGradient>
</defs>
</svg>
