<svg width="54" height="62" viewBox="0 0 54 62" fill="none" xmlns="http://www.w3.org/2000/svg">
<mask id="mask0_80_2047" style="mask-type:luminance" maskUnits="userSpaceOnUse" x="0" y="0" width="54" height="62">
<path d="M53.4308 0H0V61.25H53.4308V0Z" fill="white"/>
</mask>
<g mask="url(#mask0_80_2047)">
<path d="M53.4308 30.6306C53.4308 27.0697 48.9983 23.6951 42.2023 21.6023C43.7706 14.6339 43.0736 9.08993 40.0023 7.31495C39.2944 6.8986 38.4667 6.70138 37.5628 6.70138V9.1447C38.0637 9.1447 38.4668 9.24331 38.8043 9.4296C40.2855 10.2842 40.9281 13.5383 40.4271 17.7237C40.3073 18.7536 40.1112 19.8383 39.8717 20.945C37.737 20.419 35.4064 20.0136 32.9559 19.7507C31.4857 17.7237 29.9609 15.883 28.4253 14.2724C31.9758 10.9525 35.3084 9.13376 37.5737 9.13376V6.69043C34.5787 6.69043 30.6579 8.83792 26.6936 12.5631C22.7294 8.8598 18.8086 6.73426 15.8136 6.73426V9.1776C18.0681 9.1776 21.4115 10.9854 24.962 14.2833C23.4372 15.8939 21.9126 17.7237 20.4641 19.7507C18.0027 20.0136 15.6721 20.419 13.5374 20.9559C13.2869 19.8602 13.1017 18.7974 12.9711 17.7785C12.4592 13.5931 13.0909 10.339 14.5612 9.47344C14.8879 9.27621 15.3126 9.18854 15.8136 9.18854V6.74521C14.8988 6.74521 14.0711 6.94243 13.3523 7.35878C10.2919 9.13376 9.60577 14.6668 11.185 21.6133C4.41082 23.717 0 27.0806 0 30.6306C0 34.1915 4.4326 37.5661 11.2285 39.6588C9.66028 46.6272 10.3573 52.1712 13.4285 53.9462C14.1364 54.3625 14.9641 54.5597 15.879 54.5597C18.8739 54.5597 22.7947 52.4122 26.759 48.687C30.7233 52.3904 34.644 54.5159 37.639 54.5159C38.5538 54.5159 39.3816 54.3187 40.1004 53.9024C43.1607 52.1274 43.8469 46.5943 42.2677 39.6478C49.0201 37.5552 53.4308 34.1805 53.4308 30.6306ZM39.2509 23.3225C38.8479 24.7359 38.3469 26.1931 37.7806 27.6503C37.3341 26.7739 36.8658 25.8973 36.3539 25.0208C35.8529 24.1443 35.3192 23.2897 34.7856 22.457C36.3321 22.6871 37.8242 22.9719 39.2509 23.3225ZM34.2628 34.9912C33.4134 36.4704 32.5421 37.8729 31.6381 39.1767C30.0154 39.3192 28.3708 39.3958 26.7154 39.3958C25.0709 39.3958 23.4264 39.3192 21.8146 39.1877C20.9106 37.8838 20.0284 36.4923 19.1789 35.0241C18.3512 33.5889 17.5998 32.1317 16.9136 30.6634C17.5888 29.1952 18.3512 27.7271 19.168 26.2917C20.0175 24.8126 20.8888 23.4102 21.7928 22.1063C23.4155 21.9639 25.06 21.8872 26.7154 21.8872C28.36 21.8872 30.0045 21.9639 31.6163 22.0954C32.5203 23.3992 33.4024 24.7907 34.252 26.2589C35.0796 27.6942 35.8311 29.1514 36.5173 30.6196C35.8311 32.0878 35.0796 33.556 34.2628 34.9912ZM37.7806 33.5669C38.3687 35.0351 38.8697 36.5033 39.2836 37.9277C37.8568 38.2783 36.3539 38.5741 34.7965 38.8041C35.3302 37.9606 35.8638 37.0949 36.3648 36.2075C36.8658 35.3309 37.3341 34.4435 37.7806 33.5669ZM26.7372 45.2576C25.7243 44.2058 24.7115 43.0335 23.7095 41.7515C24.6897 41.7953 25.6917 41.8282 26.7045 41.8282C27.7282 41.8282 28.7411 41.8063 29.7323 41.7515C28.752 43.0335 27.7392 44.2058 26.7372 45.2576ZM18.6344 38.8041C17.0879 38.5741 15.5958 38.2892 14.1691 37.9386C14.572 36.5252 15.073 35.068 15.6393 33.6108C16.0858 34.4872 16.5542 35.3638 17.0661 36.2403C17.578 37.1169 18.1007 37.9715 18.6344 38.8041ZM26.6828 16.0036C27.6956 17.0553 28.7085 18.2277 29.7105 19.5096C28.7302 19.4658 27.7282 19.433 26.7154 19.433C25.6917 19.433 24.6789 19.4548 23.6878 19.5096C24.6679 18.2277 25.6808 17.0553 26.6828 16.0036ZM18.6235 22.457C18.0899 23.3006 17.5562 24.1662 17.0552 25.0537C16.5542 25.9302 16.0858 26.8068 15.6393 27.6832C15.0512 26.2151 14.5503 24.7469 14.1364 23.3225C15.5631 22.9828 17.0661 22.6871 18.6235 22.457ZM8.76717 36.1746C4.91181 34.5201 2.41778 32.3508 2.41778 30.6306C2.41778 28.9103 4.91181 26.73 8.76717 25.0865C9.70377 24.6811 10.7275 24.3196 11.784 23.9799C12.4047 26.1274 13.2216 28.3626 14.2344 30.6525C13.2325 32.9315 12.4265 35.1557 11.8166 37.2921C10.7385 36.9526 9.71471 36.58 8.76717 36.1746ZM14.6265 51.8316C13.1453 50.977 12.5028 47.7228 13.0037 43.5375C13.1235 42.5075 13.3196 41.4228 13.5592 40.3162C15.6938 40.8421 18.0245 41.2475 20.4749 41.5104C21.9452 43.5375 23.47 45.3781 25.0056 46.9887C21.4551 50.3086 18.1225 52.1274 15.8572 52.1274C15.3671 52.1164 14.9532 52.0178 14.6265 51.8316ZM40.4598 43.4827C40.9716 47.6681 40.34 50.9222 38.8697 51.7877C38.543 51.985 38.1183 52.0726 37.6172 52.0726C35.3628 52.0726 32.0193 50.2648 28.4688 46.9668C29.9936 45.3562 31.5183 43.5264 32.9668 41.4995C35.4282 41.2365 37.7588 40.8312 39.8935 40.2943C40.144 41.4009 40.34 42.4637 40.4598 43.4827ZM44.6528 36.1746C43.7162 36.58 42.6924 36.9415 41.636 37.2812C41.0152 35.1337 40.1984 32.8986 39.1855 30.6086C40.1875 28.3297 40.9934 26.1055 41.6033 23.969C42.6816 24.3086 43.7052 24.6811 44.6637 25.0865C48.519 26.741 51.013 28.9103 51.013 30.6306C51.0022 32.3508 48.5082 34.5311 44.6528 36.1746Z" fill="#61DAFB"/>
<path d="M26.7036 35.6376C29.4525 35.6376 31.6808 33.3958 31.6808 30.6305C31.6808 27.865 29.4525 25.6233 26.7036 25.6233C23.9549 25.6233 21.7266 27.865 21.7266 30.6305C21.7266 33.3958 23.9549 35.6376 26.7036 35.6376Z" fill="#61DAFB"/>
</g>
</svg>
