<svg width="46" height="44" viewBox="0 0 46 44" fill="none" xmlns="http://www.w3.org/2000/svg">
<path d="M31.6306 30.27C33.3152 30.0956 34.5932 28.6432 34.5351 26.9002C34.4772 25.1572 33.0247 23.7628 31.282 23.7628H31.1659C29.3649 23.8209 27.9708 25.3315 28.0289 27.1325C28.087 28.004 28.4355 28.7593 28.9583 29.2822C26.9832 33.175 23.9625 36.0218 19.4314 38.4039C16.3525 40.0307 13.1576 40.6117 9.96258 40.2051C7.34838 39.8565 5.31519 38.6946 4.03699 36.7771C2.17818 33.9303 2.00396 30.8509 3.57247 27.7717C4.67627 25.5638 6.41883 23.937 7.52264 23.1236C7.29025 22.3684 6.94167 21.0902 6.76741 20.1607C-1.65588 26.2611 -0.784431 34.5113 1.77161 38.4039C3.68855 41.309 7.58077 43.1101 11.8795 43.1101C13.0412 43.1101 14.2031 42.9938 15.365 42.7035C22.8007 41.2509 28.4357 36.8352 31.6306 30.27ZM41.8548 23.0657C37.4398 17.8947 30.9335 15.0479 23.4978 15.0479H22.5684C22.0455 14.0021 20.9417 13.3048 19.7218 13.3048H19.6056C17.8049 13.363 16.4108 14.8735 16.4688 16.6747C16.5269 18.4176 17.9791 19.8121 19.7218 19.8121H19.838C21.116 19.7539 22.2198 18.9405 22.6845 17.8366H23.7301C28.1452 17.8366 32.3277 19.1148 36.1038 21.6131C39.0083 23.5304 41.0996 26.0287 42.2613 29.0498C43.2489 31.49 43.1908 33.8722 42.1451 35.9058C40.5186 38.9849 37.7883 40.6699 34.1867 40.6699C31.863 40.6699 29.6555 39.9726 28.4936 39.4497C27.8547 40.0307 26.6928 40.9602 25.8794 41.5414C28.3775 42.7033 30.9335 43.3425 33.3734 43.3425C38.9502 43.3425 43.0747 40.2631 44.6432 37.1839C46.3278 33.814 46.2115 28.004 41.8548 23.0657ZM12.3442 31.2575C12.4023 33.0006 13.8546 34.3949 15.5973 34.3949H15.7136C17.5144 34.3369 18.9085 32.8262 18.8504 31.0251C18.7925 29.282 17.34 27.8878 15.5973 27.8878H15.4812C15.365 27.8878 15.1905 27.8878 15.0747 27.9457C12.6928 23.995 11.7053 19.6958 12.0539 15.0477C12.2861 11.5618 13.448 8.54047 15.4812 6.04213C17.1658 3.89243 20.4189 2.84665 22.6265 2.78869C28.7841 2.67241 31.3981 10.3415 31.5725 13.4209C32.3277 13.5952 33.6057 14.0019 34.4771 14.2925C33.7799 4.88043 27.9708 0 22.3942 0C17.1658 0 12.3442 3.77651 10.4271 9.35408C7.75496 16.7908 9.49768 23.937 12.7508 29.5727C12.4605 29.9793 12.2861 30.6184 12.3442 31.2575Z" fill="#764ABC"/>
</svg>
