<svg width="24" height="24" viewBox="0 0 24 24" fill="none" xmlns="http://www.w3.org/2000/svg">
<g clip-path="url(#clip0_327_795)">
<path d="M16 8.17078V15.4258C15.9997 16.7758 15.579 18.0923 14.7964 19.1923C14.0138 20.2924 12.9081 21.1215 11.6328 21.5645C10.3575 22.0074 8.97591 22.0423 7.67988 21.6643C6.38384 21.2863 5.23768 20.5141 4.40054 19.4549C3.56339 18.3957 3.07681 17.1022 3.00836 15.7539C2.93991 14.4056 3.29299 13.0694 4.01857 11.9309C4.74414 10.7924 5.80621 9.90813 7.0573 9.40078C8.30838 8.89344 9.6864 8.78823 11 9.09978V12.2628C10.3148 11.9378 9.54261 11.8441 8.7996 11.9959C8.05658 12.1476 7.38296 12.5366 6.8801 13.1043C6.37725 13.6719 6.07237 14.3876 6.01135 15.1434C5.95033 15.8993 6.13648 16.6546 6.54177 17.2956C6.94706 17.9366 7.54957 18.4285 8.25863 18.6975C8.96768 18.9665 9.74492 18.9979 10.4734 18.787C11.2018 18.5761 11.842 18.1343 12.2977 17.5281C12.7534 16.9219 12.9998 16.1841 13 15.4258V1.92578H16C16 3.25186 16.5268 4.52363 17.4645 5.46132C18.4022 6.399 19.6739 6.92578 21 6.92578V9.92578C19.1819 9.92818 17.4177 9.30894 16 8.17078Z" fill="#0083C9"/>
</g>
<defs>
<clipPath id="clip0_327_795">
<rect width="24" height="24" fill="white"/>
</clipPath>
</defs>
</svg>
